<?xml version="1.0" standalone="no"?>
<!DOCTYPE svg PUBLIC "-//W3C//DTD SVG 20010904//EN"
 "http://www.w3.org/TR/2001/REC-SVG-20010904/DTD/svg10.dtd">
<svg version="1.0" xmlns="http://www.w3.org/2000/svg"
 width="512.000000pt" height="512.000000pt" viewBox="0 0 512.000000 512.000000"
 preserveAspectRatio="xMidYMid meet">
<metadata>
Created by potrace 1.14, written by Peter Selinger 2001-2017
</metadata>
<g transform="translate(0.000000,512.000000) scale(0.100000,-0.100000)"
fill="#000000" stroke="none">
<path d="M2379 5116 c-2 -2 -40 -6 -83 -10 -44 -4 -82 -9 -85 -11 -4 -2 -34
-7 -66 -10 -88 -10 -345 -77 -460 -120 -925 -343 -1569 -1169 -1672 -2145 -15
-138 -8 -503 11 -615 3 -16 8 -43 10 -60 31 -214 120 -491 226 -705 175 -353
395 -627 715 -889 311 -254 770 -456 1170 -516 22 -4 54 -9 70 -12 71 -12 103
-14 365 -19 312 -6 339 -1 411 68 51 49 70 90 76 158 10 108 -41 203 -133 250
-45 23 -62 25 -211 28 l-162 3 -29 47 c-68 106 -221 430 -237 500 -2 9 -15 47
-29 84 -28 74 -106 352 -106 377 0 14 27 16 228 17 205 0 231 2 272 21 198 89
205 371 12 464 -51 25 -92 28 -428 29 l-171 0 -7 46 c-10 75 -20 309 -20 464
1 186 17 497 28 507 4 4 967 5 971 1 5 -6 16 -166 20 -313 9 -284 20 -326 98
-388 56 -45 98 -60 166 -60 101 0 186 55 232 151 17 34 22 63 22 130 1 102
-11 366 -19 435 l-6 47 491 0 490 0 11 -42 c6 -24 13 -50 15 -58 2 -8 6 -31 9
-50 3 -19 8 -46 11 -60 20 -96 25 -336 11 -492 -7 -74 -5 -96 10 -139 53 -145
212 -210 351 -143 58 28 113 88 132 144 35 103 36 495 2 715 -125 817 -645
1531 -1386 1903 -70 35 -129 62 -200 92 -137 59 -429 135 -590 155 -27 4 -61
9 -75 11 -30 6 -455 15 -461 10z m238 -619 c91 -164 158 -313 219 -487 30 -88
84 -260 88 -284 1 -6 5 -20 9 -31 4 -11 11 -41 15 -66 l9 -45 -393 0 c-216 1
-395 4 -399 7 -13 14 70 302 142 494 73 193 228 505 251 505 4 0 30 -42 59
-93z m703 -37 c190 -75 426 -219 576 -351 166 -147 345 -361 422 -504 10 -21
10 -21 -411 -20 l-421 0 -7 30 c-70 304 -147 554 -235 761 -25 60 -48 115 -51
121 -5 14 15 8 127 -37z m-1400 37 c0 -1 -16 -41 -36 -87 -100 -234 -182 -501
-249 -805 -4 -20 -12 -20 -424 -20 -416 0 -419 0 -409 20 12 21 129 197 138
205 3 3 29 34 59 70 198 238 481 446 771 567 101 43 150 59 150 50z m-433
-1427 l72 0 -4 -32 c-25 -198 -24 -885 1 -970 5 -16 -4 -18 -83 -18 -48 -1
-269 -2 -490 -3 l-402 -2 -15 65 c-20 87 -29 131 -32 155 -1 11 -6 52 -10 90
-16 128 -10 386 12 512 10 61 34 171 40 186 3 9 13 17 22 19 13 2 230 2 889
-2z m147 -1550 c3 -8 14 -60 26 -115 12 -55 27 -120 35 -145 7 -25 20 -72 30
-105 29 -103 86 -265 141 -400 28 -71 50 -132 49 -134 -10 -10 -282 110 -385
171 -204 121 -423 310 -565 488 -50 64 -142 195 -163 235 -10 20 -7 20 409 20
365 0 420 -2 423 -15z"/>
<path d="M3314 1880 c-23 -9 -73 -65 -75 -83 -1 -7 -3 -23 -4 -37 -2 -20 316
-738 565 -1275 20 -44 50 -109 65 -145 39 -89 53 -109 88 -127 40 -20 90 -19
128 4 26 15 54 62 153 259 66 132 128 249 136 261 8 11 128 77 265 146 260
131 277 142 289 210 7 37 -18 91 -51 114 -49 34 -1490 683 -1514 682 -13 0
-33 -4 -45 -9z"/>
</g>
</svg>
